<svg width="488" height="361" viewBox="0 0 488 361" fill="none" xmlns="http://www.w3.org/2000/svg">
<g opacity="0.3">
<path d="M385.616 252.396C385.396 252.397 385.18 252.36 384.991 252.29L304.062 223.283C303.875 223.213 303.719 223.115 303.61 222.998C303.5 222.881 303.441 222.748 303.436 222.613C303.437 222.477 303.495 222.344 303.605 222.226C303.714 222.109 303.872 222.011 304.062 221.943L405.214 185.746C405.403 185.677 405.619 185.64 405.839 185.64C406.059 185.64 406.275 185.677 406.464 185.746L487.393 214.706C487.581 214.775 487.736 214.873 487.842 214.99C487.949 215.108 488.003 215.241 488 215.376C487.999 215.51 487.943 215.642 487.837 215.76C487.731 215.877 487.578 215.975 487.393 216.046L386.242 252.243C386.059 252.327 385.843 252.38 385.616 252.396ZM307.189 222.66L385.616 250.728L484.285 215.423L405.858 187.355L307.189 222.66Z" fill="#92E3A9"/>
</g>
<path d="M385.616 244.383L385.597 50.6836L324.91 28.9604L324.929 222.66L385.616 244.383Z" fill="#92E3A9"/>
<path opacity="0.2" d="M385.616 244.383L385.597 50.6836L324.91 28.9604L324.929 222.66L385.616 244.383Z" fill="black"/>
<path d="M385.616 244.383L466.526 215.423L466.545 21.7231L385.597 50.6835L385.616 244.383Z" fill="#92E3A9"/>
<path d="M466.545 21.7232L405.858 0L324.91 28.9604L385.597 50.6836L466.545 21.7232Z" fill="#92E3A9"/>
<path opacity="0.25" d="M466.545 21.7232L405.858 0L324.91 28.9604L385.597 50.6836L466.545 21.7232Z" fill="white"/>
<path opacity="0.3" d="M466.545 21.7231L384.801 49.6614L358.267 40.4739L324.929 28.9603L357.68 41.1084L384.536 51.0477C383.891 56.687 383.721 153.919 383.835 159.57C383.948 165.221 384.422 238.614 385.635 244.383C386.848 238.614 387.265 165.338 387.398 159.57C387.53 154.107 387.398 57.0513 386.753 51.5881L466.545 21.7231Z" fill="white"/>
<g opacity="0.3">
<path d="M233.879 306.698C233.66 306.696 233.444 306.66 233.254 306.592L152.344 277.632C152.156 277.562 152.001 277.464 151.891 277.347C151.782 277.23 151.722 277.097 151.718 276.962C151.719 276.826 151.777 276.693 151.887 276.575C151.996 276.458 152.154 276.36 152.344 276.292L253.495 240.095C253.685 240.026 253.901 239.989 254.121 239.989C254.341 239.989 254.557 240.026 254.746 240.095L335.656 269.102C335.846 269.17 336.004 269.268 336.113 269.385C336.223 269.503 336.281 269.636 336.282 269.772C336.278 269.907 336.218 270.04 336.109 270.157C335.999 270.274 335.844 270.372 335.656 270.441L234.505 306.639C234.308 306.693 234.092 306.713 233.879 306.698ZM155.452 276.962L233.879 305.029L332.548 269.725L254.121 241.657L155.452 276.962Z" fill="#92E3A9"/>
</g>
<path d="M233.879 298.685V143.098L173.192 121.375V276.962L233.879 298.685Z" fill="#92E3A9"/>
<path opacity="0.1" d="M233.879 298.685V143.098L173.192 121.375V276.962L233.879 298.685Z" fill="white"/>
<path d="M233.879 298.685L314.808 269.725V114.138L233.879 143.098V298.685Z" fill="#92E3A9"/>
<path opacity="0.3" d="M233.879 298.685L314.808 269.725V114.138L233.879 143.098V298.685Z" fill="white"/>
<path d="M314.808 114.138L254.121 92.4263L173.192 121.375L233.879 143.098L314.808 114.138Z" fill="#92E3A9"/>
<path opacity="0.55" d="M314.808 114.138L254.121 92.4263L173.192 121.375L233.879 143.098L314.808 114.138Z" fill="white"/>
<path opacity="0.3" d="M234.959 143.486L314.808 114.114L233.879 142.311C225.066 139.209 215.381 135.884 206.53 132.83L173.192 121.328L205.943 133.464C214.888 136.789 223.834 140.126 232.818 143.404C232.533 149.278 233.273 292.611 233.879 298.626C234.505 292.705 235.225 149.149 234.959 143.486Z" fill="white"/>
<g opacity="0.3">
<path d="M82.161 361C81.9412 360.999 81.7255 360.963 81.5356 360.894L0.606652 331.934C0.421719 331.864 0.268871 331.765 0.162703 331.648C0.0565345 331.531 0.00057016 331.399 0.000144479 331.264C-0.00318846 331.129 0.0511971 330.996 0.157729 330.879C0.26426 330.761 0.41915 330.663 0.606652 330.595L101.758 294.397C101.948 294.328 102.164 294.291 102.384 294.291C102.604 294.291 102.82 294.328 103.009 294.397L183.938 323.357C184.126 323.426 184.281 323.524 184.387 323.641C184.494 323.759 184.548 323.892 184.545 324.027C184.544 324.161 184.488 324.294 184.382 324.411C184.276 324.528 184.123 324.626 183.938 324.697L82.7865 360.894C82.596 360.962 82.3807 360.998 82.161 361ZM3.73387 331.264L82.161 359.332L180.716 324.027L102.384 295.96L3.73387 331.264Z" fill="#92E3A9"/>
</g>
<path d="M82.161 352.987L82.1421 248.237L21.4548 226.513L21.4738 331.264L82.161 352.987Z" fill="#92E3A9"/>
<path opacity="0.45" d="M82.161 352.987L82.1421 248.237L21.4548 226.513L21.4738 331.264L82.161 352.987Z" fill="black"/>
<path d="M82.161 352.987L163.071 324.027L163.09 219.276L82.1421 248.237L82.161 352.987Z" fill="#92E3A9"/>
<path opacity="0.3" d="M82.161 352.987L163.071 324.027L163.09 219.276L82.1421 248.237L82.161 352.987Z" fill="black"/>
<path d="M163.09 219.276L102.403 197.553L21.4548 226.514L82.1421 248.237L163.09 219.276Z" fill="#92E3A9"/>
<path opacity="0.15" d="M163.09 219.276L102.403 197.553L21.4548 226.514L82.1421 248.237L163.09 219.276Z" fill="black"/>
<path opacity="0.3" d="M163.09 219.276L82.1421 247.473L54.793 238.015L21.4548 226.502L54.2055 238.65L81.0428 249.13C81.0428 249.13 80.948 349.463 82.161 353.023C83.374 349.498 83.3361 249.153 83.3361 249.153L163.09 219.276Z" fill="white"/>
</svg>
